<svg xmlns="http://www.w3.org/2000/svg" viewBox="0 0 500 500"><g id="freepik--background-complete--inject-116"><path d="M356.18,212.19s-8-4.08-15.09,14.78-9.35,29.54-9.35,29.54-2,4-4.82,1.85-7.15-8.68-11.37-6.94c-4.38,1.81-5.3,7-3.59,14.35s4.84,23.5,5.12,25-.32,3.67-2.49,2.52-15.22-12.76-20.36-6.24,3,26.15,3.81,28.31.51,3.16-.48,3.84-5-3.65-8.87-6.79-8.86-6.12-11.5-2.11-1.91,19.33,15.37,42.41l8.7,10.17,13.26-2.25c28.07-6.54,38.5-17.79,39.06-22.57s-5.2-5.72-10.17-5.79-10.82.65-11.15-.51.06-2.13,2.1-3.24,20.86-10.92,21.13-19.22-17.19-7.82-19.59-8.33-1.42-2.6-.29-3.53,14-11.3,20-15.81,8.67-9.09,6.48-13.29-9.6-1.82-13.16-2-2.5-4.53-2.5-4.53,5.13-9.63,11.85-28.62-2.26-21-2.26-21" style="fill:#ebebeb"></path><path d="M299.41,365.47c5-13.92,14.29-38.52,22.16-59.69s15-40.31,20-54.21l6-16.47c.7-1.93,1.25-3.43,1.63-4.47.18-.5.33-.89.43-1.16s.16-.39.16-.39a3.83,3.83,0,0,1-.12.4l-.39,1.18-1.56,4.5c-1.35,3.91-3.36,9.55-5.86,16.51-5,13.92-12.06,33.1-19.92,54.26s-17.21,45.74-22.28,59.64" style="fill:#e0e0e0"></path><path d="M321.2,260.8a5.23,5.23,0,0,1,.44.86c.25.57.61,1.4,1,2.43.84,2.06,1.93,4.93,3.08,8.12s2.13,6,2.91,8.18l.89,2.47a4,4,0,0,1,.3.92,3.94,3.94,0,0,1-.45-.86c-.25-.56-.6-1.39-1-2.43-.82-2.06-1.87-4.95-3-8.14l-3-8.16c-.36-1-.66-1.8-.9-2.47A4.17,4.17,0,0,1,321.2,260.8Z" style="fill:#e0e0e0"></path><path d="M331.1,283.88c-.05-.1,5.78-2.62,13-5.61s13.12-5.33,13.16-5.22-5.77,2.61-13,5.61S331.14,284,331.1,283.88Z" style="fill:#e0e0e0"></path><path d="M317.55,315.83a4.67,4.67,0,0,1,1-.16l2.67-.29c2.26-.25,5.37-.61,8.79-1.13s6.49-1.09,8.72-1.52l2.64-.51a4.09,4.09,0,0,1,1-.14,4.82,4.82,0,0,1-.95.3c-.61.16-1.5.39-2.61.64-2.21.51-5.29,1.13-8.72,1.64s-6.56.84-8.82,1c-1.13.09-2.05.14-2.68.17A4.45,4.45,0,0,1,317.55,315.83Z" style="fill:#e0e0e0"></path><path d="M304,296.92a4.18,4.18,0,0,1,.6.69l1.53,2c1.27,1.66,3,4,4.9,6.56s3.6,4.92,4.81,6.63c.56.81,1,1.49,1.42,2a3.24,3.24,0,0,1,.47.78,4.35,4.35,0,0,1-.6-.68c-.42-.54-.92-1.19-1.53-2-1.27-1.67-3-4-4.9-6.56s-3.6-4.93-4.81-6.64l-1.42-2A4,4,0,0,1,304,296.92Z" style="fill:#e0e0e0"></path><path d="M288.45,323.61a5.53,5.53,0,0,1,.77.88l2,2.51c1.65,2.12,3.89,5.08,6.36,8.35s4.67,6.27,6.25,8.44l1.86,2.58a8.09,8.09,0,0,1,.64,1,5.53,5.53,0,0,1-.77-.88l-2-2.51c-1.65-2.12-3.89-5.08-6.36-8.36s-4.67-6.26-6.25-8.43l-1.86-2.58A8.09,8.09,0,0,1,288.45,323.61Z" style="fill:#e0e0e0"></path><path d="M306,346.67a7.14,7.14,0,0,1,1.23-.23l3.37-.5c2.85-.42,6.78-1,11.1-1.79s8.21-1.57,11-2.17l3.34-.71a7.85,7.85,0,0,1,1.23-.22,6.65,6.65,0,0,1-1.2.37c-.77.22-1.9.51-3.3.84-2.8.68-6.69,1.53-11,2.3s-8.27,1.33-11.13,1.67c-1.43.17-2.59.3-3.39.37A8.91,8.91,0,0,1,306,346.67Z" style="fill:#e0e0e0"></path><path d="M207.57,327.1c18-10.75,23.44-32.69,24.19-52.7.12-3.34.74-6.83-.64-9.86s-4.93-5.3-8-4.11c-2.56,1-3.84,3.79-5.39,6.07a19.5,19.5,0,0,1-8.35,6.91c-2.2.95-4.87,1.44-6.89.13-2.76-1.79-2.81-5.78-2.56-9.1l1.44-18.52c.25-3.31.5-6.7-.3-9.92s-2.88-6.3-6-7.41-7.12.44-8,3.63a31.39,31.39,0,0,0-.38,4.12c-.19,1.37-.94,2.85-2.28,3.14s-2.61-.74-3.53-1.78c-3.18-3.59-5.2-8.07-7.06-12.51s-3.66-9-6.5-12.85-6.94-7.07-11.66-7.68-10,2-11.53,6.54.85,9.52,3.55,13.52A74.34,74.34,0,0,0,162,240.5a6.09,6.09,0,0,1,2.38,2.95c.56,2.26-1.69,4.31-3.92,4.88-2.53.65-5.19.2-7.8.32s-5.49,1.06-6.64,3.43c-1.6,3.3,1,7,3.61,9.57a63.47,63.47,0,0,0,18,12.17c2.37,1.06,4.88,2,6.72,3.88s2.82,4.92,1.47,7.17-4.46,2.78-7,2.12-4.71-2.2-7.07-3.29c-4.44-2.05-10.34-2.15-13.54,1.58-2.1,2.45-2.53,6-1.78,9.19a24.13,24.13,0,0,0,4.45,8.55,63.76,63.76,0,0,0,25.85,21.06c10.3,4.42,20,6.11,30.8,3" style="fill:#ebebeb"></path><path d="M203.31,314.21a300.47,300.47,0,0,0-9.52-32.81q-1.48-4.29-2.93-8.48c-1-2.77-1.94-5.53-3-8.17A148.51,148.51,0,0,0,180.59,250c-2.53-4.59-5.1-8.86-7.52-12.83s-4.78-7.62-7.06-10.87a119.49,119.49,0,0,0-11.87-14.48c-1.53-1.59-2.76-2.79-3.6-3.59l-1-.9a1.9,1.9,0,0,0-.35-.29,3.53,3.53,0,0,0,.3.33l.92.95c.82.83,2,2.05,3.52,3.67a124.31,124.31,0,0,1,11.69,14.57c2.24,3.24,4.56,6.91,7,10.88s5,8.25,7.47,12.84A154.43,154.43,0,0,1,187.27,265c1.09,2.62,2,5.35,3,8.14s1.94,5.61,2.94,8.47a308,308,0,0,1,9.54,32.74" style="fill:#e0e0e0"></path><path d="M187.64,264.72a6.25,6.25,0,0,0,.43-1.4c.24-.9.54-2.22.89-3.85.71-3.27,1.52-7.81,2.41-12.83s1.76-9.53,2.51-12.78c.37-1.62.68-2.94.91-3.84a6.28,6.28,0,0,0,.29-1.43,7.31,7.31,0,0,0-.52,1.36c-.3.89-.67,2.19-1.1,3.81-.86,3.23-1.81,7.75-2.7,12.77s-1.63,9.43-2.22,12.85c-.28,1.55-.51,2.85-.7,3.89A6.62,6.62,0,0,0,187.64,264.72Z" style="fill:#e0e0e0"></path><path d="M145.6,253.72a9.57,9.57,0,0,0,1.68.32c1.09.18,2.66.42,4.6.79,3.87.7,9.19,1.85,15,3.38s11,3.16,14.73,4.43c1.87.63,3.36,1.18,4.4,1.55a10.52,10.52,0,0,0,1.63.53,8.58,8.58,0,0,0-1.54-.76c-1-.44-2.49-1-4.35-1.73-3.7-1.39-8.89-3.08-14.72-4.62A151.62,151.62,0,0,0,152,254.4c-1.95-.31-3.54-.49-4.64-.59A9.15,9.15,0,0,0,145.6,253.72Z" style="fill:#e0e0e0"></path><path d="M202.84,313.39a2.15,2.15,0,0,0,.33-.5l.84-1.49c.72-1.29,1.71-3.2,2.91-5.57,2.41-4.73,5.52-11.38,8.86-18.76s6.39-14.05,8.69-18.83c1.12-2.32,2.05-4.23,2.74-5.65.29-.62.54-1.12.74-1.54a2.34,2.34,0,0,0,.22-.56,2.15,2.15,0,0,0-.33.5c-.23.4-.51.89-.84,1.49-.72,1.3-1.72,3.2-2.92,5.57-2.4,4.73-5.52,11.38-8.86,18.76s-6.38,14.05-8.68,18.83c-1.13,2.32-2.06,4.23-2.74,5.65l-.74,1.54A2.34,2.34,0,0,0,202.84,313.39Z" style="fill:#e0e0e0"></path><path d="M147.51,291.11a2.31,2.31,0,0,0,.54.27l1.61.67,5.92,2.4c5,2,11.88,4.9,19.48,8.09s14.5,6,19.55,7.92c2.52,1,4.57,1.72,6,2.22l1.65.56a2.14,2.14,0,0,0,.59.15,2.28,2.28,0,0,0-.55-.27l-1.6-.67-5.93-2.39c-5-2-11.88-4.91-19.47-8.09s-14.5-6-19.55-7.93c-2.52-1-4.57-1.72-6-2.21l-1.64-.56A2,2,0,0,0,147.51,291.11Z" style="fill:#e0e0e0"></path><path d="M89.94,100.93l.58.27-.45.28A11.75,11.75,0,0,0,84.83,109l-1,7.07-1.3-6a12.65,12.65,0,0,0-7.68-7.71h0l1-.59a11.71,11.71,0,0,0,5.28-7.74l.55-5.38,2,5.51A12.64,12.64,0,0,0,89.94,100.93Z" style="fill:#e0e0e0;opacity:0.6000000000000001"></path><path d="M85.3,255l.4.19-.31.2a8.11,8.11,0,0,0-3.61,5.18l-.69,4.86-.9-4.12a8.69,8.69,0,0,0-5.28-5.3h0l.65-.41a8.08,8.08,0,0,0,3.64-5.32l.37-3.7,1.36,3.79A8.68,8.68,0,0,0,85.3,255Z" style="fill:#e0e0e0;opacity:0.6000000000000001"></path><path d="M77.57,279.71l.53.25-.41.25a10.81,10.81,0,0,0-4.81,6.92L72,293.61l-1.19-5.49a11.6,11.6,0,0,0-7.05-7.07h0l.87-.54a10.78,10.78,0,0,0,4.85-7.1l.5-4.94,1.81,5A11.65,11.65,0,0,0,77.57,279.71Z" style="fill:#ebebeb;opacity:0.6000000000000001"></path><path d="M173.06,50.49l.58.27-.45.28A11.72,11.72,0,0,0,168,58.58l-1,7.07-1.3-6A12.62,12.62,0,0,0,158,52h0l1-.59a11.71,11.71,0,0,0,5.28-7.74l.55-5.38,2,5.51A12.64,12.64,0,0,0,173.06,50.49Z" style="fill:#ebebeb;opacity:0.6000000000000001"></path><path d="M338.87,45l.59.27-.45.28a11.76,11.76,0,0,0-5.25,7.54l-1,7.07-1.3-6a12.67,12.67,0,0,0-7.68-7.71h0l.94-.59A11.72,11.72,0,0,0,330,38.09l.54-5.38,2,5.51A12.64,12.64,0,0,0,338.87,45Z" style="fill:#ebebeb;opacity:0.6000000000000001"></path><path d="M444.93,142.68l.55.33-.47.23a11.72,11.72,0,0,0-6,7l-1.71,6.94-.7-6.09a12.67,12.67,0,0,0-6.89-8.43h0l1-.49a11.75,11.75,0,0,0,6-7.18l1.07-5.31,1.43,5.68A12.69,12.69,0,0,0,444.93,142.68Z" style="fill:#ebebeb;opacity:0.6000000000000001"></path><path d="M418.26,275.11l.35.16-.27.17a7,7,0,0,0-3.12,4.48l-.6,4.2-.77-3.56a7.52,7.52,0,0,0-4.57-4.58h0l.56-.35A7,7,0,0,0,413,271l.32-3.2,1.18,3.27A7.51,7.51,0,0,0,418.26,275.11Z" style="fill:#ebebeb;opacity:0.6000000000000001"></path><path d="M437,217l.59.28-.45.28a11.72,11.72,0,0,0-5.25,7.53l-1,7.07-1.3-6a12.6,12.6,0,0,0-7.68-7.71h0l.94-.59a11.77,11.77,0,0,0,5.29-7.74l.54-5.39,2,5.51A12.64,12.64,0,0,0,437,217Z" style="fill:#e0e0e0;opacity:0.6000000000000001"></path><path d="M82.45,130.64l1.27.6-1,.62a25.61,25.61,0,0,0-11.48,16.48L69.06,163.8l-2.85-13.09a27.61,27.61,0,0,0-16.8-16.86h0l2.06-1.3A25.67,25.67,0,0,0,63,115.63l1.19-11.78,4.33,12.05A27.62,27.62,0,0,0,82.45,130.64Z" style="fill:#ebebeb;opacity:0.6000000000000001"></path><path d="M431.67,108.77l1,.59-.85.42a21,21,0,0,0-10.7,12.53l-3.06,12.45-1.26-10.92a22.68,22.68,0,0,0-12.37-15.13h0l1.8-.89A21.08,21.08,0,0,0,417,94.93L419,85.41l2.56,10.19A22.68,22.68,0,0,0,431.67,108.77Z" style="fill:#e0e0e0;opacity:0.6000000000000001"></path></g><g id="freepik--Floor--inject-116"><path d="M424.45,468c0,.15-78.11.26-174.44.26S75.55,468.18,75.55,468s78.09-.26,174.46-.26S424.45,467.89,424.45,468Z" style="fill:#263238"></path></g><g id="freepik--Cat--inject-116"><path d="M348.44,172.76c-1.53-2-3.81-3.28-6-4.5-15.87-8.73-32-17.54-49.51-22-35.11-9-73,.46-104.27,18.86-8.79,5.18-18.12,11.6-24.4,19.64-1.16.65-5.37,6.14-4.65,10.45.85,5.07,5,9.11,9.65,11.23s9.91,2.62,15,3a489.79,489.79,0,0,0,137.07-9.11c9.07-1.89,18.7-4.39,24.84-11.33C350.1,184.54,352,177.47,348.44,172.76Z" style="fill:#FF725E"></path><g style="opacity:0.30000000000000004"><path d="M348.44,172.76c-1.53-2-3.81-3.28-6-4.5-15.87-8.73-32-17.54-49.51-22-35.11-9-73,.46-104.27,18.86-8.79,5.18-18.12,11.6-24.4,19.64-1.16.65-5.37,6.14-4.65,10.45.85,5.07,5,9.11,9.65,11.23s9.91,2.62,15,3a489.79,489.79,0,0,0,137.07-9.11c9.07-1.89,18.7-4.39,24.84-11.33C350.1,184.54,352,177.47,348.44,172.76Z"></path></g><path d="M199,149.9c2.21-15.19,3.58-30.51,7.09-45.51s9.29-29.84,19.47-42.17c6.52-7.91,15.68-15,26.65-15.75,8.55-.55,16.76,2.87,24.17,6.73a161.73,161.73,0,0,1,35.92,25.4,2.39,2.39,0,0,1-.21,3.72c-1.47,1-3.52-.09-5.22-.68-12.57-4.42-25.68-13.2-38.25-17.62,3.86,4.31,5.48,9.83,7.07,15.16,1.5,5,3.07,10,4.64,15.06l17,54.26" style="fill:#FF725E"></path><path d="M198.17,117s-3.94-1.82-3,7.58,4.85,26.67,6.67,27.58-1.51,2.42,0,5.76a32.23,32.23,0,0,1,2.12,6.36s-5,14.24-4.46,18.49,5.37,34.85,4.46,40.3.22,10.47.38,16.53-2.8,19.24-2.8,19.24-14.9,13.22-18.32,23.14-8.55,26.34-10.95,32.16-11,14-12.66,20.87-7.18,25.66-3.42,42.77,9.92,40.37,16.08,43.11,9.24,6.16,11.63,6.5,47.72,34.48,67.23,35.84,40.55-23.18,47.74-30.71,24.29-47.21,24.63-53.71,4.45-27.72,0-41.06-5.13-33.53-10.26-47.56,6.48-29.26-6.16-52.61c-.26-.49-2.95-8.44-2.95-8.44s-.13-61.44-3.89-69.31c0,0,1.36-13.69-.35-16.08s-2.73-3.08-1.71-5.48,1.71-9.23,1.71-9.23-.68-24.3-5.47-23.61S275.91,118.78,272.83,128c0,0-3.17,6.39-7,7s-20.44,2.15-25.59,3.23-6.45.21-10.1-1.08-7.53-1.93-11-5.37S203.88,115.53,198.17,117Z" style="fill:#455a64"></path><path d="M229.16,140.56a3.66,3.66,0,0,1,.49.82c.28.55.67,1.35,1.13,2.34.94,2,2.16,4.76,3.4,7.87s2.27,6,3,8c.34,1,.61,1.89.78,2.48a3.86,3.86,0,0,1,.22.93,25.79,25.79,0,0,1-1.35-3.29c-.78-2-1.87-4.87-3.1-8s-2.41-5.9-3.25-7.92A24.63,24.63,0,0,1,229.16,140.56Z" style="fill:#263238"></path><path d="M271.28,147.8a65.3,65.3,0,0,0-4.24,7.08,63.65,63.65,0,0,0-2.77,7.78,9,9,0,0,1,.35-2.42,27.83,27.83,0,0,1,1.95-5.58,28.12,28.12,0,0,1,3.07-5A9.06,9.06,0,0,1,271.28,147.8Z" style="fill:#263238"></path><path d="M264,144.47a34,34,0,0,0-2.3,6.79,34.31,34.31,0,0,0-.3,7.16,6.43,6.43,0,0,1-.43-2.09,18.38,18.38,0,0,1,1.87-10.07A6.59,6.59,0,0,1,264,144.47Z" style="fill:#263238"></path><g style="opacity:0.30000000000000004"><path d="M275.07,139.35a7.23,7.23,0,0,1-.82-5.65,21.45,21.45,0,0,1,2.3-5.38c3.42-6.34,6.94-12.82,12.31-17.62a6.75,6.75,0,0,1,2.34-1.52,2.69,2.69,0,0,1,2.64.44,4,4,0,0,1,.89,1.64,47.83,47.83,0,0,1,3,13,21.11,21.11,0,0,1-3.06,12.83c-2.47,3.73-6.72,6.41-11.19,6.33a11.5,11.5,0,0,1-9-4.7"></path></g><g style="opacity:0.30000000000000004"><path d="M204.12,150.53a13.63,13.63,0,0,0,9.55-2.22,7.81,7.81,0,0,0,3.57-5c.31-2.1-.64-4.16-1.56-6.07a57.08,57.08,0,0,0-5-9,18.93,18.93,0,0,0-7.81-6.53c-1.36-.56-3.23-.74-4,.52a3.31,3.31,0,0,0-.33,1.74A93.87,93.87,0,0,0,200.36,143c.63,3.13,1.68,6.59,4.5,8.08"></path></g><path d="M347.08,171.31c-16.46-9.27-28.65-17-47.07-21.23-30.66-7-62.68,1.15-92.26,11.8-15.17,5.47-35.28,13.76-46,25.78,0,0,34.89-39.17,37.78-40.91,0,0,6.41,8.14,20.43-2.28,10.3-7.66,6.53-9.09,6.53-9.09l42.13-2.48s4.19,11.77,29.2,9.08l2-1.42Z" style="fill:#FF725E"></path><path d="M224,120.23l.22.1-.17.11a4.53,4.53,0,0,0-2,2.87l-.41,1.81-.47-1.39a4.55,4.55,0,0,0-2.85-2.87h0l.36-.23a4.58,4.58,0,0,0,2-2.95l.32-1.58.63,1.62A4.55,4.55,0,0,0,224,120.23Z" style="fill:#fff"></path><path d="M261.14,110l.22.11-.17.1a4.66,4.66,0,0,0-2,2.87l-.4,1.82-.47-1.4a4.64,4.64,0,0,0-2.85-2.87h0l.35-.23a4.56,4.56,0,0,0,2-2.94l.33-1.58.62,1.61A4.59,4.59,0,0,0,261.14,110Z" style="fill:#fff"></path><path d="M238.24,61.56l.22.1-.17.11a4.63,4.63,0,0,0-2,2.87l-.4,1.82-.47-1.4a4.64,4.64,0,0,0-2.85-2.87h0l.35-.23a4.56,4.56,0,0,0,2-2.94l.33-1.59.62,1.62A4.59,4.59,0,0,0,238.24,61.56Z" style="fill:#fff"></path><path d="M278.64,58.06l.19-.15,0,.2a4.58,4.58,0,0,0,1.66,3.08L282,62.37l-1.46-.21a4.57,4.57,0,0,0-3.84,1.26h0l0-.42a4.54,4.54,0,0,0-1.72-3.14l-1.27-1,1.73.17A4.57,4.57,0,0,0,278.64,58.06Z" style="fill:#fff"></path><path d="M230.8,88.5l.12.06-.1.06a2.71,2.71,0,0,0-1.18,1.69l-.23,1.06-.28-.82a2.7,2.7,0,0,0-1.68-1.68h0l.21-.14a2.68,2.68,0,0,0,1.2-1.73l.19-.93.36,1A2.72,2.72,0,0,0,230.8,88.5Z" style="fill:#fff"></path><path d="M276.41,117.57l.13.06-.1.07a2.71,2.71,0,0,0-1.18,1.68l-.24,1.07-.27-.82a2.74,2.74,0,0,0-1.68-1.69h0l.21-.13a2.66,2.66,0,0,0,1.19-1.73l.19-.93.37.95A2.69,2.69,0,0,0,276.41,117.57Z" style="fill:#fff"></path><path d="M265.24,83.85l.13.06-.1.06a2.67,2.67,0,0,0-1.18,1.69l-.24,1.06-.28-.82a2.66,2.66,0,0,0-1.67-1.68h0l.21-.14a2.7,2.7,0,0,0,1.19-1.73l.19-.93.37,1A2.7,2.7,0,0,0,265.24,83.85Z" style="fill:#fff"></path><path d="M317.92,325.38a20.08,20.08,0,0,0,14.15,13.11,8.87,8.87,0,0,1-6,4.41l6,.82c.27,0,.57.1.69.33a.81.81,0,0,1-.11.73,10.2,10.2,0,0,1-10.87,5.14" style="fill:#455a64"></path><path d="M279.53,93.09a4.69,4.69,0,0,1-.72.27l-2.09.7c-1.82.6-4.47,1.4-7.76,2.34-6.59,1.89-15.78,4.2-26.06,6.1s-19.7,3-26.53,3.6c-3.41.3-6.17.49-8.09.58l-2.2.1a3.78,3.78,0,0,1-.77,0,3.59,3.59,0,0,1,.76-.11l2.2-.19c1.91-.15,4.67-.4,8.07-.74,6.81-.69,16.19-1.86,26.46-3.75s19.45-4.15,26.06-5.94c3.3-.9,6-1.65,7.8-2.19l2.12-.6A3.91,3.91,0,0,1,279.53,93.09Z" style="fill:#263238"></path><path d="M239.48,51a6.31,6.31,0,0,1,1.33-.33,24.36,24.36,0,0,1,3.75-.38,26.5,26.5,0,0,1,21.67,10.33,23.74,23.74,0,0,1,2.07,3.14,5.79,5.79,0,0,1,.58,1.25c-.09,0-.95-1.72-2.94-4.16a27.43,27.43,0,0,0-21.38-10.19C241.41,50.66,239.49,51.11,239.48,51Z" style="fill:#263238"></path><path d="M293.41,63.24a10,10,0,0,1-1.12,5.41,12.06,12.06,0,0,1-2.7,3.75l-.09.08-.07,0a.52.52,0,0,1-.22-.74c.11-.17.23-.17.23-.15s-.06.08-.09.21,0,.37.18.41l-.15,0a17.79,17.79,0,0,0,2.44-3.78A28.06,28.06,0,0,0,293.41,63.24Z" style="fill:#263238"></path><g style="opacity:0.30000000000000004"><path d="M199.49,146.75a30.93,30.93,0,0,0-1.88,6.09c-.5,2.11-.31,4.74,1.54,5.88,1.66,1,3.82.32,5.57-.53,8.29-4,14.81-10.89,20.59-18.06-3.85,2.78-7.5,6.64-12,8.21s-9.18,3-13.84-1.59"></path></g><g style="opacity:0.30000000000000004"><path d="M268.84,133.42c.81,2.36,1.36,4.83,2.79,6.87a12.49,12.49,0,0,0,5.69,4.68c4.1,1.55,8.64.23,13-.31a31.33,31.33,0,0,0,5.39-.83,6.41,6.41,0,0,0,4-3.27l-2,1.42s-11.88,1.79-20.18-1.67C270.57,137.38,268.84,133.42,268.84,133.42Z"></path></g><path d="M215.63,109.46a8.79,8.79,0,0,1-.62-3.53,8.85,8.85,0,0,1,.35-3.56,20.3,20.3,0,0,1,.17,3.54A21.19,21.19,0,0,1,215.63,109.46Z" style="fill:#263238"></path><path d="M233.54,107.15a16.29,16.29,0,0,1-.86-3,15.6,15.6,0,0,1-.79-3,6.66,6.66,0,0,1,1.29,2.83A6.46,6.46,0,0,1,233.54,107.15Z" style="fill:#263238"></path><path d="M253.63,102.57c-.15,0-.35-1.58-.92-3.47s-1.29-3.32-1.16-3.4A7.41,7.41,0,0,1,253.2,99,7.39,7.39,0,0,1,253.63,102.57Z" style="fill:#263238"></path><path d="M272.33,98.51c-.16,0-.3-1.66-.93-3.6s-1.47-3.37-1.34-3.46a9.68,9.68,0,0,1,2.27,7.06Z" style="fill:#263238"></path><path d="M253.38,47.56a32.22,32.22,0,0,0-3.65,1.77,34,34,0,0,0-3.11,2.61,7,7,0,0,1,2.83-3A6.82,6.82,0,0,1,253.38,47.56Z" style="fill:#263238"></path><path d="M261.9,52c0,.15-1.52.57-3.22,1.53s-2.89,2-3,1.93A8.89,8.89,0,0,1,261.9,52Z" style="fill:#263238"></path><path d="M269,59.19c0,.15-1.12.5-2.38,1.25s-2.13,1.59-2.25,1.49.63-1.14,2-1.93A4.35,4.35,0,0,1,269,59.19Z" style="fill:#263238"></path><path d="M293.7,71.14a6.57,6.57,0,0,1-2.34-1,6.44,6.44,0,0,1-2.09-1.45,6.23,6.23,0,0,1,2.34,1C292.83,70.36,293.77,71,293.7,71.14Z" style="fill:#263238"></path><path d="M295.18,68a4.9,4.9,0,0,1-2.09-.75c-1.08-.55-1.91-1.09-1.85-1.22a4.9,4.9,0,0,1,2.09.75C294.41,67.34,295.24,67.89,295.18,68Z" style="fill:#263238"></path><path d="M264.26,130.57a5.55,5.55,0,0,1-1.29.09c-.82,0-2,.06-3.49.14a92.81,92.81,0,0,0-22.67,3.95c-1.41.43-2.55.79-3.33,1.05a5.54,5.54,0,0,1-1.24.35,6.24,6.24,0,0,1,1.17-.54c.76-.32,1.89-.74,3.29-1.21a76.44,76.44,0,0,1,22.76-4c1.48,0,2.68,0,3.51,0A7.12,7.12,0,0,1,264.26,130.57Z" style="fill:#263238"></path><path d="M244.36,121.53A7.79,7.79,0,0,1,238.18,109a7.79,7.79,0,1,0,10.91,10.92A7.78,7.78,0,0,1,244.36,121.53Z" style="fill:#fff"></path><path d="M248.15,75.21a7.79,7.79,0,0,1,10.65-9,7.79,7.79,0,1,0-7.93,13.24A7.79,7.79,0,0,1,248.15,75.21Z" style="fill:#fff"></path><path d="M197.32,280.93a75.59,75.59,0,0,0-9.53,36.26,24.56,24.56,0,0,1,5.84-11.87,130.63,130.63,0,0,0-4.44,24.1c1.32-2.33,2.64-4.65,3.95-7-2.67,17.23,1.79,34.77,7.71,51.16s13.39,32.34,17.09,49.38c1.29,6,2.09,12.29.19,18.09-1.46,4.44-4.43,8.33-5.39,12.9s-1.22,13.58,3.44,13.88H247.4c1.26-9-.13-18.33-3.8-28l-1.46-60.38-5-8.76s4.67,6.13,7.3,7l-7.88-12.84,3.51,2s-4.68-9.63-5.26-16,.58-12,.58-13.13" style="fill:#455a64"></path><path d="M235.43,337.74a2.7,2.7,0,0,1,0,.5c0,.34-.1.83-.17,1.48-.15,1.31-.38,3.25-.46,5.8a31.43,31.43,0,0,0,.91,9.35,71.78,71.78,0,0,0,4.53,12l.18.39L240,367l-3.51-2,.19-.19c2.36,3.83,5,8.15,7.9,12.82l.25.4-.44-.16a7,7,0,0,1-2.1-1.32,21.56,21.56,0,0,1-1.85-1.74,50.13,50.13,0,0,1-3.44-4l.3-.19,5,8.74,0,0v.05c.43,17.39.94,37.89,1.5,60.39v-.08a67.68,67.68,0,0,1,3.64,13.53,50.17,50.17,0,0,1,.17,14.59l0,.22H217.33a7.67,7.67,0,0,1-1.76-.11,3.38,3.38,0,0,1-1.61-.89,6.54,6.54,0,0,1-1.6-3.19,17.45,17.45,0,0,1-.43-3.51,27.49,27.49,0,0,1,.69-7.05,32,32,0,0,1,2.7-6.61c.68-1.36,1.37-2.72,1.94-4.1a21.82,21.82,0,0,0,1.29-4.29,29.79,29.79,0,0,0,.22-8.89,68.86,68.86,0,0,0-1.61-8.71q-1-4.29-2.3-8.46c-3.38-11.11-7.78-21.54-11.66-31.71s-7.3-20.13-9.21-29.95a81.13,81.13,0,0,1-1.05-28.23l.38.13-3.95,7-.46.79.09-.91a130,130,0,0,1,4.47-24.12l.29.16a24.41,24.41,0,0,0-5.83,11.78l-.29,0A75.61,75.61,0,0,1,193,289.9c1.2-3,2.32-5.24,3.09-6.74l.91-1.67.32-.56s-.09.2-.28.58-.5.95-.88,1.69c-.74,1.51-1.84,3.74-3,6.76a76.23,76.23,0,0,0-5.21,27.23l-.29,0a24.65,24.65,0,0,1,5.87-12l.48-.55-.19.71a129.58,129.58,0,0,0-4.41,24.07l-.37-.12,3.94-7,.56-1-.17,1.12a80.58,80.58,0,0,0,1.09,28.08c1.92,9.78,5.31,19.71,9.22,29.86S212,401,215.35,412.15q1.29,4.19,2.31,8.49a71,71,0,0,1,1.63,8.77,30.56,30.56,0,0,1-.23,9,22.51,22.51,0,0,1-1.31,4.38c-.59,1.42-1.28,2.78-2,4.14a31.37,31.37,0,0,0-2.65,6.5,27.31,27.31,0,0,0-.69,6.91,17.48,17.48,0,0,0,.43,3.4,6,6,0,0,0,1.45,2.95,2.85,2.85,0,0,0,1.37.75,6.4,6.4,0,0,0,1.66.1H247.4l-.25.21a49.85,49.85,0,0,0-.17-14.44,66.11,66.11,0,0,0-3.6-13.44l0,0v0c-.52-22.5-1-43-1.41-60.39l0,.09c-1.74-3.07-3.42-6-4.95-8.76l.3-.2a49.43,49.43,0,0,0,3.4,4,24.2,24.2,0,0,0,1.81,1.72,7.13,7.13,0,0,0,2,1.27l-.19.24-7.86-12.85-.29-.47.48.28,3.5,2.05L240,367a72.19,72.19,0,0,1-4.49-12.05,31.24,31.24,0,0,1-.85-9.4c.1-2.56.36-4.5.53-5.81S235.43,337.74,235.43,337.74Z" style="fill:#263238"></path><path d="M227.25,467.85c-.08,0,.25-.87.56-2.26a16.77,16.77,0,0,0,.32-5.51c-.5-4.36-2.63-7.39-2.44-7.46a7.29,7.29,0,0,1,1.29,2,15.69,15.69,0,0,1,1.66,5.44,14.57,14.57,0,0,1-.47,5.66A6.74,6.74,0,0,1,227.25,467.85Z" style="fill:#263238"></path><path d="M236.54,467.85a20.19,20.19,0,0,1,.56-2.26,16.53,16.53,0,0,0,.31-5.51c-.49-4.36-2.62-7.39-2.43-7.46a7.58,7.58,0,0,1,1.29,2,15.91,15.91,0,0,1,1.66,5.44,14.57,14.57,0,0,1-.47,5.66A6.74,6.74,0,0,1,236.54,467.85Z" style="fill:#263238"></path><path d="M307.94,296.81c1.08,8.67,3,24.26,0,37.9s-5.85,17.76-9.31,29-9.31,34.86-9.31,34.86-3.47,7.58-7.15,15.37-3.46,35.52-3.6,37c-.23,2.54,2.71,4.31,3.58,6.71,1,2.71,1.8,5.89.28,8.34a8.77,8.77,0,0,1-4.1,3.09,31.81,31.81,0,0,1-31.09-3.36l-1.59-40" style="fill:#455a64"></path><path d="M245.65,425.71s0,.24,0,.7.07,1.18.11,2.07c.09,1.84.21,4.52.37,8,.3,6.92.72,16.91,1.25,29.24l-.08-.14a31.59,31.59,0,0,0,16.93,5.84,32.14,32.14,0,0,0,10-1.11,31,31,0,0,0,4.9-1.86,6.55,6.55,0,0,0,3.58-3.62,9.06,9.06,0,0,0-.22-5.32,13.7,13.7,0,0,0-1-2.58,22.13,22.13,0,0,0-1.67-2.28,7.05,7.05,0,0,1-1.44-2.59,4.86,4.86,0,0,1-.08-1.51l0-1.45c0-1.95.07-3.92.1-5.9.11-4,.26-8,.55-12.1a100,100,0,0,1,1.49-12.38c.16-.93.43-1.84.67-2.75a13.32,13.32,0,0,1,.47-1.34,12.68,12.68,0,0,1,.55-1.3l2.33-5,4.56-9.79,0,0c1.8-7.22,3.6-14.21,5.39-20.91s3.54-13.12,5.64-19.08c1-3,2.17-5.83,3.19-8.62s1.92-5.51,2.68-8.17a83.91,83.91,0,0,0,3-15,119.06,119.06,0,0,0-.24-22c-.24-2.57-.47-4.56-.61-5.9-.07-.66-.13-1.16-.17-1.53s0-.52,0-.52,0,.18.09.52l.21,1.52c.18,1.34.43,3.32.7,5.89a115.28,115.28,0,0,1,.4,22,84.3,84.3,0,0,1-3,15.1c-.75,2.67-1.65,5.42-2.66,8.21s-2.13,5.65-3.16,8.62c-2.08,5.94-3.79,12.37-5.59,19.06s-3.58,13.68-5.37,20.9v0l-4.55,9.8-2.33,5a11.41,11.41,0,0,0-.53,1.27,11.79,11.79,0,0,0-.46,1.3c-.24.89-.5,1.78-.66,2.71a101.56,101.56,0,0,0-1.49,12.31c-.28,4.08-.44,8.11-.54,12.07q-.06,3-.12,5.9l0,1.46a4.46,4.46,0,0,0,.07,1.38,6.61,6.61,0,0,0,1.35,2.4,22.46,22.46,0,0,1,1.7,2.33,14.2,14.2,0,0,1,1,2.69,9.59,9.59,0,0,1,.2,5.61,5.61,5.61,0,0,1-1.54,2.36,9.85,9.85,0,0,1-2.29,1.53,30.75,30.75,0,0,1-5,1.88,32.54,32.54,0,0,1-10.1,1.11,31.81,31.81,0,0,1-17.13-6l-.07,0v-.09c-.45-12.34-.82-22.33-1.08-29.25-.11-3.45-.2-6.12-.27-8,0-.9,0-1.59,0-2.07S245.65,425.71,245.65,425.71Z" style="fill:#263238"></path><path d="M251.56,436.24a.84.84,0,0,1-.05-.27c0-.21-.06-.47-.11-.8-.09-.7-.18-1.75-.29-3.09a90.65,90.65,0,0,1,0-11.42c.28-4.82,1-10.53,1.86-16.84.45-3.15.89-6.47,1.54-9.89a48.33,48.33,0,0,1,3.06-10.32c1.75-4,4.39-7.41,6.77-10.63a37,37,0,0,0,5.68-9.82l.39.23-5.08,5.22-.31-.29a28.08,28.08,0,0,0,4.93-7.47,28.79,28.79,0,0,0,2.09-6.54,30.36,30.36,0,0,0,.52-4.36c0-.48,0-.86,0-1.16a1.93,1.93,0,0,1,0-.39,1.47,1.47,0,0,1,0,.39c0,.26,0,.65,0,1.16a28.65,28.65,0,0,1-7.36,18.66l-.3-.29,5.05-5.25.7-.74-.32,1a36.9,36.9,0,0,1-5.71,10c-2.38,3.24-5,6.58-6.7,10.54a48,48,0,0,0-3,10.21c-.66,3.39-1.1,6.71-1.56,9.86-.92,6.3-1.65,12-2,16.79a98.07,98.07,0,0,0-.2,11.39c.07,1.34.12,2.39.19,3.09,0,.33,0,.6.05.81A.92.92,0,0,1,251.56,436.24Z" style="fill:#263238"></path><path d="M253.25,365.11a14,14,0,0,1-.91-2.76c-.48-1.73-1.07-4.15-1.58-6.84s-.87-5.16-1.06-6.94a14.36,14.36,0,0,1-.17-2.91,19.52,19.52,0,0,1,.54,2.86c.28,1.77.68,4.21,1.2,6.89s1,5.1,1.43,6.85A19.43,19.43,0,0,1,253.25,365.11Z" style="fill:#263238"></path><path d="M254.23,362a56.53,56.53,0,0,1-.38-7.54,53.08,53.08,0,0,1,.14-7.55,56.37,56.37,0,0,1,.38,7.54A53.08,53.08,0,0,1,254.23,362Z" style="fill:#263238"></path><path d="M261.7,342.73a9,9,0,0,1,0,2.43,34.52,34.52,0,0,1-2.9,11.28,9.4,9.4,0,0,1-1.15,2.13c-.15-.07,1.46-3.39,2.57-7.78a51.28,51.28,0,0,0,1.11-5.67A15.12,15.12,0,0,1,261.7,342.73Z" style="fill:#263238"></path><path d="M266.56,335a11.51,11.51,0,0,1,.06,2.86,37.91,37.91,0,0,1-1,6.84,37.32,37.32,0,0,1-2.24,6.53A11.42,11.42,0,0,1,262,353.7a22.86,22.86,0,0,1,1-2.66,49,49,0,0,0,3.23-13.26A23.72,23.72,0,0,1,266.56,335Z" style="fill:#263238"></path><path d="M273.17,326.92a8.85,8.85,0,0,1,.13,2.46,28.62,28.62,0,0,1-.79,5.88,29.78,29.78,0,0,1-2,5.6,8.61,8.61,0,0,1-1.25,2.12,62.82,62.82,0,0,0,2.73-7.84A65.45,65.45,0,0,0,273.17,326.92Z" style="fill:#263238"></path><path d="M279.7,323.27a8.9,8.9,0,0,1-.11,2.48,34.73,34.73,0,0,1-1.22,5.88,35.55,35.55,0,0,1-2.18,5.59,9.47,9.47,0,0,1-1.27,2.14,18.24,18.24,0,0,1,.93-2.3,54.26,54.26,0,0,0,2-5.58,56.41,56.41,0,0,0,1.35-5.78A16.09,16.09,0,0,1,279.7,323.27Z" style="fill:#263238"></path><path d="M285,316a12.23,12.23,0,0,1-.15,3,37.54,37.54,0,0,1-4.41,13.49,12.92,12.92,0,0,1-1.62,2.47,24.65,24.65,0,0,1,1.29-2.64,49.37,49.37,0,0,0,2.68-6.53,47.93,47.93,0,0,0,1.69-6.84A25,25,0,0,1,285,316Z" style="fill:#263238"></path><path d="M288.22,313.3a9.53,9.53,0,0,1,.26,2.41,39.69,39.69,0,0,1-1.3,11.62,9.43,9.43,0,0,1-.79,2.29,13.06,13.06,0,0,1,.43-2.38c.3-1.46.67-3.48.92-5.73s.34-4.31.37-5.8A13.08,13.08,0,0,1,288.22,313.3Z" style="fill:#263238"></path><path d="M249,295.47a32.57,32.57,0,0,0,5.65-6,32.18,32.18,0,0,0,3.46-7.51,7.49,7.49,0,0,1-.47,2.42,19.87,19.87,0,0,1-2.56,5.38,20.09,20.09,0,0,1-4,4.4A7.65,7.65,0,0,1,249,295.47Z" style="fill:#263238"></path><path d="M253,298.44c-.13-.09,1.71-2.78,3.21-6.48s2.09-6.91,2.25-6.88a7.26,7.26,0,0,1-.25,2.13,27.94,27.94,0,0,1-1.52,5,27.56,27.56,0,0,1-2.38,4.58A6.82,6.82,0,0,1,253,298.44Z" style="fill:#263238"></path><path d="M255.65,305.51a11.3,11.3,0,0,1,.17-2.58c.18-1.58.5-3.76.94-6.15s.92-4.53,1.31-6.08a12,12,0,0,1,.76-2.46,14,14,0,0,1-.4,2.54c-.33,1.75-.72,3.81-1.16,6.1s-.78,4.36-1.09,6.11A13.72,13.72,0,0,1,255.65,305.51Z" style="fill:#263238"></path><path d="M260,306.48a7.7,7.7,0,0,1-.08-2.22,41.33,41.33,0,0,1,.53-5.33,43.72,43.72,0,0,1,1.19-5.21,8.25,8.25,0,0,1,.79-2.08c.15,0-.81,3.28-1.47,7.38S260.18,306.49,260,306.48Z" style="fill:#263238"></path><path d="M265.49,308a6.79,6.79,0,0,1-1-1.91A25.28,25.28,0,0,1,262.74,296a7.36,7.36,0,0,1,.25-2.13c.17,0-.07,3.27.63,7.2A71.78,71.78,0,0,0,265.49,308Z" style="fill:#263238"></path><path d="M268.05,299.43a6.12,6.12,0,0,1-1-1.66,22.77,22.77,0,0,1-1.68-4.4,23.38,23.38,0,0,1-.75-4.65,5.65,5.65,0,0,1,.08-2c.16,0,.22,3,1.18,6.47S268.2,299.35,268.05,299.43Z" style="fill:#263238"></path><path d="M271.48,299.42a11.64,11.64,0,0,1-1.38-2.25c-.77-1.43-1.76-3.45-2.71-5.74s-1.69-4.42-2.16-6a11.25,11.25,0,0,1-.62-2.56,16,16,0,0,1,1,2.44c.56,1.53,1.34,3.62,2.29,5.9s1.88,4.31,2.56,5.78A15.17,15.17,0,0,1,271.48,299.42Z" style="fill:#263238"></path><path d="M259.53,324.49a16.12,16.12,0,0,1,0-4,16.34,16.34,0,0,1,.5-4,15,15,0,0,1,0,4A15.88,15.88,0,0,1,259.53,324.49Z" style="fill:#263238"></path><path d="M260.27,330.08c-.15-.06,1.09-3,2-6.72s1-6.91,1.21-6.9a6.87,6.87,0,0,1,0,2.07,31.22,31.22,0,0,1-.74,4.94,30.75,30.75,0,0,1-1.52,4.77A6.73,6.73,0,0,1,260.27,330.08Z" style="fill:#263238"></path><g style="opacity:0.30000000000000004"><path d="M225.24,343.68c-5.12-2.32-10.83-2.93-16.27-4.34s-11-3.93-13.92-8.74c-.45-.73-1.05-1.63-1.9-1.49s-1.15,1.4-1.07,2.35a20.17,20.17,0,0,0,2.62,8.26l0-.06c.73,2.49,2.71,5.92,5,7.17a29.88,29.88,0,0,0,7.36,2.5l28.14,6.91C235,350.62,230.36,346,225.24,343.68Z"></path></g><g style="opacity:0.30000000000000004"><path d="M200.62,372.75c3.8,6.89,11.8,10.3,19.46,12.12s15.73,2.61,22.64,6.39c-.41-5-4.72-8.95-9.37-10.89s-9.77-2.45-14.61-3.84a41,41,0,0,1-20.87-14,18.42,18.42,0,0,0,6,12.12"></path></g><g style="opacity:0.30000000000000004"><path d="M207.64,390.56c3.19.3,6.53.64,9.18,2.45,3.83,2.61,5.24,7.58,8.43,10.94-2,.68-4.07-.51-5.82-1.66l-10.8-7.05"></path></g><g style="opacity:0.30000000000000004"><path d="M261.66,377.39l.17-.15,1-1.41Z"></path></g><g style="opacity:0.30000000000000004"><path d="M282,368.27c-7.1,2.15-14.67,4-20.16,9a55,55,0,0,0-4.93,8.88c9.68-4.45,20.42-3.12,29.91-7.95a25.86,25.86,0,0,0,13.8-21.6C296.73,363,289.17,366.09,282,368.27Z"></path></g><g style="opacity:0.30000000000000004"><path d="M272.7,353.73c.57-4.06,3.5-7.47,6.95-9.7s7.39-3.52,11.23-5,7.68-3.22,10.54-6.16A22.72,22.72,0,0,1,282,354.22c-3.29.48-6.66.23-9.93.78l.49-1.3"></path></g><g style="opacity:0.30000000000000004"><path d="M307.44,279c-7,3.13-10.94,10.39-14.89,16.93s-9.2,13.38-16.76,14.52c5.6.46,11.16-1.75,15.73-5s8.31-7.55,12-11.79c3.12-3.59,6.4-7.53,6.75-12.27a2.57,2.57,0,0,0-.5-2c-.51-.5-1.6-.37-1.7.34"></path></g><g style="opacity:0.30000000000000004"><path d="M237,337.32c3.22-2.63,4.47-7.09,4.22-11.23s-1.8-8.1-3.33-12c-1.22-3.08-2.49-6.25-4.83-8.6-6.14-6.16-16.59-4.24-24.49-7.87,1.95,4.49,6.42,7.31,10.83,9.43s9.14,3.92,12.57,7.41c6,6.09,8.92,12.36,5,22.82"></path></g><path d="M177,423.7c-5.71,6.93-5.07,17.1-2.73,25.78,1.43,5.31,3.51,10.68,7.54,14.42,6.43,6,16.28,6.44,24.91,4.84,26.22-4.87,48-26,56.41-51.33,1.76-5.25,3-10.8,2.43-16.32s-3.22-11-7.88-14-11.42-2.91-15.34,1c-2.7,2.69-3.72,6.59-4.74,10.27-2.09,7.48-4.73,15-9.35,21.22s-11.48,11.2-19.22,12c-11.1,1.15-20.87-7.58-32-7.86" style="fill:#455a64"></path><path d="M177,423.7l.75,0a18.53,18.53,0,0,1,2.2.21,37.92,37.92,0,0,1,8.17,2.2c1.73.63,3.63,1.4,5.71,2.21a60.82,60.82,0,0,0,6.88,2.31,24.09,24.09,0,0,0,8.24.75,23.58,23.58,0,0,0,8.81-2.8,30.55,30.55,0,0,0,8-6.34,40.76,40.76,0,0,0,6.2-9.2,71.79,71.79,0,0,0,4.34-11.12c.62-2,1.15-4,1.74-6a23.07,23.07,0,0,1,2.5-6,11,11,0,0,1,5.05-4.31,13.06,13.06,0,0,1,6.76-.78,13.67,13.67,0,0,1,6.41,2.67A17.22,17.22,0,0,1,263.3,393a21.62,21.62,0,0,1,2.3,6.83,27.51,27.51,0,0,1,.16,7.31,55.89,55.89,0,0,1-3.88,14.37,80.93,80.93,0,0,1-15.53,24.76c-.4.44-.78.89-1.19,1.32l-1.26,1.24c-.84.81-1.65,1.67-2.52,2.44-1.76,1.52-3.46,3.09-5.32,4.42a70.9,70.9,0,0,1-11.31,7.14c-2,.94-3.89,1.92-5.89,2.64-1,.37-2,.8-3,1.12l-3,.91c-.49.15-1,.32-1.48.44l-1.49.34-3,.67a47.85,47.85,0,0,1-5.87.75,33,33,0,0,1-11.16-1,20.2,20.2,0,0,1-8.91-5.17,25,25,0,0,1-5-8,53.78,53.78,0,0,1-2.46-8,39.09,39.09,0,0,1-.94-13.34,25.51,25.51,0,0,1,1.1-4.77,20.75,20.75,0,0,1,1.51-3.26l.68-1.08.56-.74.47-.58s-.14.21-.43.61q-.21.31-.54.75l-.65,1.1a19.69,19.69,0,0,0-1.45,3.25,24.62,24.62,0,0,0-1.05,4.74,39.2,39.2,0,0,0,1,13.26,53,53,0,0,0,2.48,7.95,24.34,24.34,0,0,0,4.95,7.82,19.86,19.86,0,0,0,8.76,5.05,32.51,32.51,0,0,0,11,1,47.1,47.1,0,0,0,5.82-.76l2.93-.67,1.49-.34c.49-.12,1-.29,1.46-.44l3-.91c1-.32,1.95-.75,2.93-1.12a63.28,63.28,0,0,0,5.86-2.62,71.84,71.84,0,0,0,11.22-7.11c1.85-1.33,3.53-2.89,5.28-4.4.87-.77,1.66-1.62,2.5-2.43l1.25-1.24c.41-.42.79-.87,1.19-1.3a81,81,0,0,0,15.42-24.61A55.34,55.34,0,0,0,265.24,407a27.36,27.36,0,0,0-.14-7.18,21.46,21.46,0,0,0-2.25-6.67,16.69,16.69,0,0,0-4.42-5.26,13.21,13.21,0,0,0-6.18-2.58,12.58,12.58,0,0,0-6.5.74,10.34,10.34,0,0,0-4.83,4.12,22.43,22.43,0,0,0-2.46,5.85c-.59,2-1.13,4.05-1.75,6a71.89,71.89,0,0,1-4.39,11.17,41.25,41.25,0,0,1-6.29,9.28,30.64,30.64,0,0,1-8.12,6.39,23.75,23.75,0,0,1-9,2.81,24.31,24.31,0,0,1-8.34-.8,59,59,0,0,1-6.9-2.36c-2.08-.82-4-1.61-5.69-2.25A39.47,39.47,0,0,0,179.9,424a18,18,0,0,0-2.18-.25Z" style="fill:#263238"></path><g style="opacity:0.30000000000000004"><path d="M265.67,398.4c.63,17.22-9,34.49-15.66,42.82-4.38,5.46-9.8,10-15.19,14.42-3.17,2.62-6.84,6.12-10.8,7.21,8.66-.6,16.33-5.8,22.73-11.67A61.92,61.92,0,0,0,260.39,434C263.73,427.51,270.33,406.91,265.67,398.4Z"></path></g><path d="M173.14,372.75a28.62,28.62,0,0,1-.86-3.25c-.51-2-1.27-4.79-2.28-7.79s-2.1-5.66-2.92-7.57A24.34,24.34,0,0,1,165.8,351a3.61,3.61,0,0,1,.49.77c.29.51.67,1.26,1.13,2.2a66.21,66.21,0,0,1,3.07,7.55,69.12,69.12,0,0,1,2.15,7.87c.2,1,.35,1.86.43,2.44A2.79,2.79,0,0,1,173.14,372.75Z" style="fill:#263238"></path><path d="M175.4,369.08c-.15,0-.92-3.24-2.32-7.13s-2.84-6.94-2.7-7a8.21,8.21,0,0,1,1.12,1.91,47,47,0,0,1,2.07,4.92,45.55,45.55,0,0,1,1.5,5.13A8.09,8.09,0,0,1,175.4,369.08Z" style="fill:#263238"></path><path d="M178.34,373.29a71.49,71.49,0,0,1-3.13-11.85,71.49,71.49,0,0,1,3.13,11.85Z" style="fill:#263238"></path><path d="M181.63,375.58a58.8,58.8,0,0,1-3.17-10.71,29.23,29.23,0,0,1,1.83,5.28A29.83,29.83,0,0,1,181.63,375.58Z" style="fill:#263238"></path><path d="M186.46,378.68a19.87,19.87,0,0,1-2.08-4,18.9,18.9,0,0,1-1.59-4.2,19.22,19.22,0,0,1,2.07,4A19.91,19.91,0,0,1,186.46,378.68Z" style="fill:#263238"></path><path d="M189.52,381.8a27.72,27.72,0,0,1-2-4.86,25.57,25.57,0,0,1-1.45-5,26.91,26.91,0,0,1,1.95,4.85A25.76,25.76,0,0,1,189.52,381.8Z" style="fill:#263238"></path><path d="M193.28,266.77a26.79,26.79,0,0,1-19.49,10.77,13,13,0,0,0,6.37,1.23,12.35,12.35,0,0,1-7.43,2.19,9.83,9.83,0,0,0,9.72,1.92,15.86,15.86,0,0,0,8-6.38,43.21,43.21,0,0,0,4.49-9.37" style="fill:#455a64"></path><path d="M263.83,471.29c-.09,0,.08-1,.09-2.58a19.2,19.2,0,0,0-.95-6.06,18.91,18.91,0,0,0-2.85-5.43c-.95-1.27-1.67-2-1.6-2a7.81,7.81,0,0,1,1.89,1.79,16.91,16.91,0,0,1,3.88,11.73A7.88,7.88,0,0,1,263.83,471.29Z" style="fill:#263238"></path><path d="M278.36,469.67c-.09,0,0-1-.11-2.68a23.64,23.64,0,0,0-1.25-6.27,22.4,22.4,0,0,0-1.42-3.22,11.82,11.82,0,0,0-1.57-2.38,4.49,4.49,0,0,0-2.19-1.35s.27-.07.73,0a3.91,3.91,0,0,1,1.72,1.05,11,11,0,0,1,1.73,2.41,19.52,19.52,0,0,1,1.49,3.28,20.29,20.29,0,0,1,1.13,6.43A9,9,0,0,1,278.36,469.67Z" style="fill:#263238"></path><path d="M214.41,148.05a3.67,3.67,0,0,1,1.07.23,21.61,21.61,0,0,1,2.83,1,28.48,28.48,0,0,1,4,2,32.54,32.54,0,0,1,4.39,3.23,33.28,33.28,0,0,1,3.74,4,28.38,28.38,0,0,1,2.48,3.69,21.24,21.24,0,0,1,1.32,2.68,5.06,5.06,0,0,1,.36,1c-.09,0-.69-1.4-2-3.54a32.32,32.32,0,0,0-2.53-3.57,32.81,32.81,0,0,0-8-7.09,34.56,34.56,0,0,0-3.86-2.08C215.88,148.56,214.38,148.14,214.41,148.05Z" style="fill:#263238"></path><path d="M261.38,230.47a3.38,3.38,0,0,1-.63.62,16.46,16.46,0,0,1-2,1.44,17.89,17.89,0,0,1-8.3,2.53l-1.38.07,1.28-.53a24.13,24.13,0,0,0,7.06-4.49c.28-.25.54-.51.79-.75l.27.43a24.17,24.17,0,0,1-13.71.43,21.56,21.56,0,0,1-3.9-1.42c-.45-.2-.77-.4-1-.52a1.36,1.36,0,0,1-.33-.22,40.5,40.5,0,0,0,5.32,1.81,24.83,24.83,0,0,0,13.45-.57l1.06-.36-.79.79c-.25.25-.52.51-.81.77A23.9,23.9,0,0,1,250.5,235l-.1-.46a18.51,18.51,0,0,0,8.18-2.3C260.42,231.25,261.33,230.41,261.38,230.47Z" style="fill:#263238"></path><path d="M268.58,229.15c.11.09-.26.78-.83,1.54s-1.13,1.31-1.25,1.23.26-.78.83-1.54S268.46,229.06,268.58,229.15Z" style="fill:#263238"></path><path d="M275,224.31a12.06,12.06,0,0,1-5.53,6.45c-.09-.12,1.44-1.28,2.95-3.06S274.89,224.24,275,224.31Z" style="fill:#263238"></path><path d="M267.11,180.42a10.54,10.54,0,1,0,19.39-7.89s-6.74-3.38-11.57-.79S267.11,180.42,267.11,180.42Z" style="fill:#fff"></path><path d="M274.92,171.6c1.82-1.32,7-.46,7-.46,1.77,3.85,2.5,8.58.36,12.24a6.46,6.46,0,0,1-4.64,2.72,5.34,5.34,0,0,1-4.12-2.46,22.26,22.26,0,0,1-3.46-8.94S273.09,172.91,274.92,171.6Z" style="fill:#FF725E"></path><path d="M275.85,173.43c.06-.15.26-.49.26-.49l.42.3c1.47,1.08,1.93,3.55,2.07,5.37a8.54,8.54,0,0,1-.68,4.37c-.09.26-.22.55-.48.62-.44.13-.75-.4-.89-.83C275.55,179.75,274.76,176.42,275.85,173.43Z" style="fill:#263238"></path><path d="M264.91,189.72c-.18-.06-.16-.63-.05-1.64s.29-2.44.56-4.24a27.18,27.18,0,0,1,1.67-6.37,13.81,13.81,0,0,1,2.12-3.51,11.17,11.17,0,0,1,3.58-2.74,15.08,15.08,0,0,1,8.25-1.33,28.32,28.32,0,0,1,6.39,1.52c3.49,1.28,5.39,2.57,5.26,2.87s-2.3-.33-5.77-1.1-8.46-1.84-13,.37a9.34,9.34,0,0,0-2.81,2.09,12.69,12.69,0,0,0-1.86,2.83,36.76,36.76,0,0,0-2,5.77,35.73,35.73,0,0,1-1.38,4.11C265.42,189.3,265.07,189.78,264.91,189.72Z" style="fill:#263238"></path><path d="M269.58,178.86A6.45,6.45,0,0,1,274,177a.78.78,0,0,1,.54.14.68.68,0,0,1,.11.68,3.35,3.35,0,0,1-1.3,1.87,5.69,5.69,0,0,1-2.12.9,1.93,1.93,0,0,1-1.42-.08,1.11,1.11,0,0,1-.53-1,1.13,1.13,0,0,1,.59-.93" style="fill:#fff"></path><path d="M276.57,176.83a1.09,1.09,0,1,0,1-1.17A1.1,1.1,0,0,0,276.57,176.83Z" style="fill:#fff"></path><g style="opacity:0.30000000000000004"><path d="M216.07,177.05l-12.73,5.64a7.85,7.85,0,0,0-3,2,2.37,2.37,0,0,0,2.81,3.79,9,9,0,0,0,2.54-1.94c4.46-4.24,9.73-7.51,15-10.76-2.25.69-2.08.35-4.32,1"></path></g><g style="opacity:0.30000000000000004"><path d="M301.75,175.43a7.06,7.06,0,0,0-3.23-1.24l-13-2.62-.25-.21c-2.23-.16-2,.13-4.22,0,5.53,2,11.1,4,16.13,7.1a8.16,8.16,0,0,0,2.76,1.32,2.49,2.49,0,0,0,2.67-1.09A2.74,2.74,0,0,0,301.75,175.43Z"></path></g><path d="M204.25,223.53a70.87,70.87,0,0,1-12.47,21.64,8.76,8.76,0,0,0,5.16-.83,19.13,19.13,0,0,1-5.49,5.63c2.54,1.14,10.1-6.6,12.45-8.1-.48,10.68-10,23.05-9.42,28.49,5.51-3.68,11.42-7.9,13.14-14.3,2.8-10.44-6.9-21.54-3.25-31.7" style="fill:#455a64"></path><path d="M276,203.52a7.51,7.51,0,0,1-.39,2.2,11.25,11.25,0,0,1-3.41,5.1,11.41,11.41,0,0,1-3.76,2.13,10,10,0,0,1-5,.31,11.57,11.57,0,0,1-5.06-2.32,10.8,10.8,0,0,1-3.53-4.88l.5-.06a11.32,11.32,0,0,1-1.41,4.43,11.61,11.61,0,0,1-4.91,4.74,11,11,0,0,1-6.28,1.06,11.69,11.69,0,0,1-5.39-2,10.64,10.64,0,0,1-3.3-3.78,11.57,11.57,0,0,1-1.2-7.08,7.75,7.75,0,0,1,.77-2.54,16.91,16.91,0,0,0-.57,2.57,11.64,11.64,0,0,0,1.33,6.87,10.21,10.21,0,0,0,3.22,3.6,11.26,11.26,0,0,0,5.2,1.94,10.66,10.66,0,0,0,6-1,11.31,11.31,0,0,0,4.69-4.54,10.9,10.9,0,0,0,1.34-4.22l.12-1.15.38,1.09a11,11,0,0,0,8.2,6.91,9.68,9.68,0,0,0,4.78-.25,11.17,11.17,0,0,0,3.66-2,11.35,11.35,0,0,0,3.45-4.89C275.92,204.32,276,203.51,276,203.52Z" style="fill:#263238"></path><path d="M261.53,194.89a5.92,5.92,0,0,0-2.55-.17c-2.37.18-5.92.18-8.52.33a4.58,4.58,0,0,0-.64,0h-.11a8.28,8.28,0,0,0-3.2,1.05,2.26,2.26,0,0,0-1.29,1.56c-.13,1.13,1.17,1.88,2.3,2.07s2.43.21,3.17,1.08a6.11,6.11,0,0,1,.86,2.21,4.06,4.06,0,0,0,2.45,2.6,3,3,0,0,0,3.32-1c.94-1.32.52-3.3,1.56-4.53a6.61,6.61,0,0,1,2.38-1.4,2.63,2.63,0,0,0,1.74-2A2.06,2.06,0,0,0,261.53,194.89Z" style="fill:#263238"></path><path d="M202.23,230.27a2.27,2.27,0,0,1,.22-.44l.7-1.21a21.75,21.75,0,0,1,1.21-1.86c.5-.71,1-1.54,1.74-2.37s1.43-1.79,2.31-2.72,1.84-1.91,2.88-2.92a55,55,0,0,1,7.43-5.73,55.6,55.6,0,0,1,8.37-4.26c1.35-.5,2.63-1,3.87-1.35s2.38-.67,3.44-.91,2-.41,2.89-.56a21.48,21.48,0,0,1,2.21-.29l1.39-.12a1.53,1.53,0,0,1,.49,0,2.7,2.7,0,0,1-.48.11l-1.38.21c-.6.08-1.33.19-2.18.38s-1.81.32-2.85.62-2.2.56-3.4,1-2.49.87-3.82,1.38a57.09,57.09,0,0,0-8.27,4.25,57.9,57.9,0,0,0-7.39,5.64c-1,1-2,1.91-2.88,2.86s-1.65,1.82-2.34,2.66-1.27,1.62-1.79,2.31a21.83,21.83,0,0,0-1.27,1.8c-.32.46-.58.84-.79,1.16S202.25,230.28,202.23,230.27Z" style="fill:#263238"></path><path d="M215.49,228.37a5.66,5.66,0,0,1,.63-1.09c.43-.68,1.1-1.64,2-2.79a50.56,50.56,0,0,1,17.41-14.21c1.3-.64,2.37-1.11,3.13-1.39a5.45,5.45,0,0,1,1.19-.4,5.54,5.54,0,0,1-1.11.58c-.73.34-1.78.86-3,1.54a56.73,56.73,0,0,0-17.29,14.11c-.92,1.11-1.64,2-2.12,2.68A6,6,0,0,1,215.49,228.37Z" style="fill:#263238"></path><path d="M216.41,205.5a3.36,3.36,0,0,1,.84-.36c.55-.21,1.36-.47,2.37-.75a44.73,44.73,0,0,1,8.08-1.4,43.93,43.93,0,0,1,8.2.12c1,.12,1.88.25,2.46.37a3.57,3.57,0,0,1,.88.23c0,.08-1.29-.09-3.37-.23a58.08,58.08,0,0,0-8.13,0,55.73,55.73,0,0,0-8,1.24C217.68,205.21,216.44,205.58,216.41,205.5Z" style="fill:#263238"></path><path d="M222.15,231.83a4,4,0,0,1,.45-.91c.31-.58.8-1.4,1.43-2.38a63,63,0,0,1,12.08-13.72c.9-.75,1.65-1.34,2.18-1.72a3.82,3.82,0,0,1,.86-.55c0,.06-1.07,1-2.79,2.55a80.11,80.11,0,0,0-12,13.64C223,230.65,222.22,231.88,222.15,231.83Z" style="fill:#263238"></path><path d="M259.77,216.46c0,.06-.39.35-1.16.62a7.85,7.85,0,0,1-6.22-.51c-.72-.39-1.08-.75-1-.8a16.15,16.15,0,0,0,4.15,1.18A16,16,0,0,0,259.77,216.46Z" style="fill:#263238"></path><path d="M286.21,212.13c0,.07-1-.66-2.64-1.62a27.69,27.69,0,0,0-6.87-2.78,27,27,0,0,0-7.38-.79c-1.9.06-3.08.26-3.09.17s.28-.12.81-.23a17.12,17.12,0,0,1,2.26-.31,23.74,23.74,0,0,1,14.46,3.63,17.61,17.61,0,0,1,1.85,1.34C286,211.89,286.24,212.1,286.21,212.13Z" style="fill:#263238"></path><path d="M291.41,207.45c0,.08-1.48-.46-3.87-1.14a57.36,57.36,0,0,0-19.21-2.19c-2.48.13-4,.33-4,.25a4.12,4.12,0,0,1,1.06-.24c.69-.13,1.7-.26,2.94-.38a49.5,49.5,0,0,1,19.34,2.2c1.19.39,2.14.75,2.79,1A4.73,4.73,0,0,1,291.41,207.45Z" style="fill:#263238"></path><path d="M292.81,198.52c0,.08-1.57-.18-4.09-.44a67.5,67.5,0,0,0-9.91-.23,66.36,66.36,0,0,0-9.82,1.29c-2.49.53-4,1-4,.87a5.27,5.27,0,0,1,1-.4c.68-.23,1.67-.52,2.91-.82a53.84,53.84,0,0,1,19.86-1.07c1.26.17,2.28.35,3,.51A4,4,0,0,1,292.81,198.52Z" style="fill:#263238"></path><g style="opacity:0.30000000000000004"><path d="M248.78,214.7c1.05.73,2.51.17,3.51-.62s1.9-1.82,3.14-2.13c2.3-.57,4.75,1.63,6.95.75a11.38,11.38,0,0,1-7.68-6.63,8.75,8.75,0,0,1-6,8.73"></path></g><g style="opacity:0.30000000000000004"><path d="M303.91,211.89a44.48,44.48,0,0,1-31.65,21.64,27,27,0,0,0,17.54-1.05,38.07,38.07,0,0,0,14.26-9.87Z"></path></g><path d="M240.7,182.28a10.54,10.54,0,1,1-19.9-6.48s6.48-3.86,11.48-1.62S240.7,182.28,240.7,182.28Z" style="fill:#fff"></path><path d="M231.6,174c-2-1.05-7,.53-7,.53-1.21,4.07-1.27,8.85,1.36,12.17a6.45,6.45,0,0,0,5,2,5.35,5.35,0,0,0,3.73-3,22.36,22.36,0,0,0,2.17-9.34S233.59,175.08,231.6,174Z" style="fill:#FF725E"></path><path d="M230.79,175.66a3.77,3.77,0,0,0-.28-.47l-.4.33c-1.39,1.18-1.67,3.68-1.69,5.5a8.54,8.54,0,0,0,1,4.31c.11.25.26.53.53.59.44.09.72-.46.83-.89C231.55,181.94,232.1,178.56,230.79,175.66Z" style="fill:#263238"></path><path d="M243.57,191.4c-.16.07-.55-.39-1-1.31a35.36,35.36,0,0,1-1.68-4,36.42,36.42,0,0,0-2.46-5.61,12.29,12.29,0,0,0-2.05-2.69,8.93,8.93,0,0,0-2.95-1.88c-4.67-1.88-9.62-.38-13,.55s-5.49,1.86-5.67,1.52,1.65-1.72,5-3.25a28.85,28.85,0,0,1,6.27-2,15.17,15.17,0,0,1,8.33.73,11.12,11.12,0,0,1,3.77,2.49,13.66,13.66,0,0,1,2.36,3.35,27.48,27.48,0,0,1,2.12,6.23c.4,1.77.68,3.2.87,4.19S243.74,191.33,243.57,191.4Z" style="fill:#263238"></path><path d="M223.27,180.3a6.5,6.5,0,0,0,4.61-1.25.81.81,0,0,0,.34-.44.73.73,0,0,0-.34-.61,3.38,3.38,0,0,0-2.18-.67,5.78,5.78,0,0,0-2.22.6,2,2,0,0,0-1.07.94,1.11,1.11,0,0,0,.18,1.08,1.13,1.13,0,0,0,1,.37" style="fill:#fff"></path><circle cx="231.27" cy="179.26" r="1.09" style="fill:#fff"></circle><g style="opacity:0.30000000000000004"><path d="M232.07,169.21a6.39,6.39,0,0,1,3.75.74,19.4,19.4,0,0,1,3.2,2.21l3.26,2.6a6.25,6.25,0,0,0-10.4-5.32"></path></g><g style="opacity:0.30000000000000004"><path d="M264.29,170.8a9.18,9.18,0,0,1,6.07-4.29c.43-.09,1-.3.92-.73a.77.77,0,0,0-.4-.47,5.85,5.85,0,0,0-5.72-.37,5,5,0,0,0-2.65,5,1.7,1.7,0,0,0,.67,1.25.8.8,0,0,0,1.19-.38"></path></g><path d="M348.44,172.76s-.15-.08-.44-.27l-1.27-.85c-1.11-.74-2.78-1.8-5-3.08a210.14,210.14,0,0,0-19.21-9.72c-4.15-1.86-8.74-3.8-13.75-5.66a74.44,74.44,0,0,0-16.43-4.36,114.83,114.83,0,0,0-18.79-1c-3.27.09-6.58.29-9.94.7-1.67.18-3.37.35-5.06.6s-3.41.45-5.11.75a230.66,230.66,0,0,0-37.89,9.52c-5.7,1.92-11,3.92-16,5.94s-9.53,4-13.66,5.88A83,83,0,0,0,175,176.86a59.58,59.58,0,0,0-7.41,5.53c-1.92,1.66-3.36,3-4.36,3.91l-1.13,1c-.26.23-.4.33-.4.33l.36-.37c.27-.25.63-.6,1.1-1.06,1-.92,2.39-2.29,4.3-4a58.17,58.17,0,0,1,7.38-5.63,82.74,82.74,0,0,1,10.89-5.7c4.14-1.91,8.7-3.92,13.66-5.94s10.31-4.06,16-6a228.21,228.21,0,0,1,38-9.57c1.72-.31,3.43-.51,5.13-.75s3.4-.43,5.08-.61c3.36-.41,6.7-.6,10-.69a115.81,115.81,0,0,1,18.87,1,74.57,74.57,0,0,1,16.51,4.44c5,1.88,9.61,3.84,13.75,5.72a197,197,0,0,1,19.16,9.89c2.19,1.3,3.84,2.39,4.94,3.16l1.24.89Z" style="fill:#263238"></path><path d="M260.38,192.9a39.82,39.82,0,0,0-6-.31,38.92,38.92,0,0,0-5.88,1.1,15,15,0,0,1,11.85-.79Z" style="fill:#263238"></path><path d="M257.67,189.25a29.64,29.64,0,0,1-3.19.44,30.8,30.8,0,0,1-3.16.61,6.26,6.26,0,0,1,3.08-1.13A6.33,6.33,0,0,1,257.67,189.25Z" style="fill:#263238"></path><path d="M256.13,187.84c0,.15-.67.26-1.49.25s-1.5-.13-1.5-.27.68-.25,1.5-.25S256.14,187.7,256.13,187.84Z" style="fill:#263238"></path><g style="opacity:0.30000000000000004"><path d="M205.05,241.68l5.28-4.53a6.3,6.3,0,0,0,.23,3.93l3.4-3.92c.91,2.22,3.49,3.2,5.83,3.76,7,1.67,14.31,1.73,21.53,1.78a19.79,19.79,0,0,1-8.67,3.82,40.6,40.6,0,0,1-9.54.53A88.38,88.38,0,0,1,212.47,246c-2.94-.48-6.15-1.31-7.8-3.79"></path></g><path d="M304.16,229.13a115,115,0,0,1-43.34,20.11c-25.48,5.63-57-6.64-57-6.64l-2.32,9.05s33.61,13.13,57.2,9.71c28.93-4.19,47.76-25.26,47.76-25.26Z" style="fill:#FF725E"></path><path d="M259.37,262.34c.11-.09.52.29.59.93s-.24,1.1-.37,1-.09-.48-.15-1S259.25,262.42,259.37,262.34Z" style="fill:#fff"></path><path d="M264.12,277.88a7.23,7.23,0,1,1,3-9.8A7.24,7.24,0,0,1,264.12,277.88Z" style="fill:#FF725E"></path><rect x="258.97" y="263.23" width="2.94" height="15.93" rx="1.27" transform="translate(376.4 -86.48) rotate(61.8)" style="fill:#FF725E"></rect><path d="M264,275.47a12.1,12.1,0,0,0-1.11-2.29,1.91,1.91,0,0,0-.42-.55.62.62,0,0,0-.65-.08.61.61,0,0,0-.22.66,2.15,2.15,0,0,0,.33.66,7.07,7.07,0,0,1,1.23,4.43,8.86,8.86,0,0,0,.95-.42A3.7,3.7,0,0,0,264,275.47Z" style="fill:#263238"></path><path d="M253.29,273.56a7.62,7.62,0,0,1,1.57-1.55,25.9,25.9,0,0,1,4.41-3,26.19,26.19,0,0,1,4.92-2,6.9,6.9,0,0,1,2.16-.42,69.37,69.37,0,0,0-6.84,2.88A72.37,72.37,0,0,0,253.29,273.56Z" style="fill:#263238"></path><path d="M254.68,276a6.8,6.8,0,0,1,1.52-1.42,32.84,32.84,0,0,1,4.14-2.8,34.46,34.46,0,0,1,4.51-2.16,7.41,7.41,0,0,1,2-.59c.06.15-2.89,1.27-6.24,3.2S254.78,276.1,254.68,276Z" style="fill:#263238"></path><path d="M262.85,274.42a1.17,1.17,0,1,1-1.11-2.05,1.17,1.17,0,0,1,1.58.48A1.16,1.16,0,0,1,262.85,274.42Z" style="fill:#263238"></path><path d="M254.15,271.43c-.14,0-.44-.94-.08-2.09s1.15-1.79,1.24-1.69-.44.82-.74,1.84S254.29,271.41,254.15,271.43Z" style="fill:#fff"></path><path d="M254.85,275.38c0,.15-.55.1-.78-.41s.07-.94.2-.86.13.35.27.64S254.88,275.24,254.85,275.38Z" style="fill:#fff"></path><path d="M261.7,277.79a6.11,6.11,0,0,1-5.75-2.28c.1-.12,1.17.82,2.76,1.44S261.7,277.64,261.7,277.79Z" style="fill:#fff"></path><path d="M258.94,265.05c.05,0-.11.4-.66.64a1.91,1.91,0,0,1-2.47-2.63c.27-.53.65-.67.67-.62s-.19.29-.33.76a1.64,1.64,0,0,0,2,2.14C258.64,265.23,258.88,265,258.94,265.05Z" style="fill:#fff"></path><g style="opacity:0.30000000000000004"><path d="M251.34,250.56c-24.35.89-47.49-8-47.49-8l-.56,2.19c17.92,8.65,38.65,15.17,58.33,12.22,17.45-2.62,32.87-13.06,42.48-27.86C304.1,229.15,276.91,249.62,251.34,250.56Z"></path></g><path d="M244.56,249.27a20.73,20.73,0,0,1-5.95,3.93,12.89,12.89,0,0,0,11.45-2.27l.15,6c1.63-.5,2-3.12,3.69-3.32s2.58,2.51,4.33,3a4.38,4.38,0,0,1-.47-1.8,1.52,1.52,0,0,1,1-1.45,2.2,2.2,0,0,1,1.39.22l5.1,2-2.46-3.23a31.69,31.69,0,0,0,12.49.73,33.94,33.94,0,0,1-6.46-2.41,23.84,23.84,0,0,0,9.71-2.36,4.22,4.22,0,0,1-2.4-1.19,15.33,15.33,0,0,0,15.15-9.74q-6.39,2-12.94,3.48c-11.06,2.51-22.53,4-32.74,8.89" style="fill:#455a64"></path><path d="M161.78,331.94a50.31,50.31,0,0,0-10,32.65c.44,8.32,2.73,17.59-2.15,24.34a6.25,6.25,0,0,0,4.6-1.64,12.18,12.18,0,0,1-2.34,7.51,4.79,4.79,0,0,0,4.63-2.33,46.74,46.74,0,0,0,4.88,13.75c.23-.63.47-1.26.7-1.88A21.31,21.31,0,0,0,171.6,421c2.62,1.72,6.22,2.78,8.79,1,2.07-1.46,2.67-4.25,2.78-6.77.45-10.22-4.5-19.84-9.94-28.49s-11.63-17.14-14.16-27A40.21,40.21,0,0,1,162.61,331" style="fill:#455a64"></path></g><g id="freepik--Stars--inject-116"><path d="M360.85,122.63l.79.45-.66.35a16.69,16.69,0,0,0-8.27,10.08l-2.22,9.9-1.17-8.62a18,18,0,0,0-10-11.77h0l1.4-.73a16.68,16.68,0,0,0,8.35-10.37l1.37-7.56,2.19,8A17.93,17.93,0,0,0,360.85,122.63Z" style="fill:#FF725E"></path><path d="M345.35,95.19l.54.31-.45.23a11.28,11.28,0,0,0-5.6,6.83l-1.5,6.69-.79-5.83a12.13,12.13,0,0,0-6.78-8h0l1-.5a11.3,11.3,0,0,0,5.65-7l.92-5.12,1.48,5.43A12.16,12.16,0,0,0,345.35,95.19Z" style="fill:#FF725E"></path><path d="M327.65,111.91l.37.21-.31.16a7.78,7.78,0,0,0-3.85,4.7l-1,4.6-.55-4a8.35,8.35,0,0,0-4.66-5.48h0l.65-.34a7.74,7.74,0,0,0,3.88-4.82l.64-3.52,1,3.73A8.38,8.38,0,0,0,327.65,111.91Z" style="fill:#FF725E"></path><path d="M360.85,122.63l.79.45-.66.35a16.69,16.69,0,0,0-8.27,10.08l-2.22,9.9-1.17-8.62a18,18,0,0,0-10-11.77h0l1.4-.73a16.68,16.68,0,0,0,8.35-10.37l1.37-7.56,2.19,8A17.93,17.93,0,0,0,360.85,122.63Z" style="fill:#fff;opacity:0.6000000000000001"></path><path d="M345.35,95.19l.54.31-.45.23a11.28,11.28,0,0,0-5.6,6.83l-1.5,6.69-.79-5.83a12.13,12.13,0,0,0-6.78-8h0l1-.5a11.3,11.3,0,0,0,5.65-7l.92-5.12,1.48,5.43A12.16,12.16,0,0,0,345.35,95.19Z" style="fill:#fff;opacity:0.6000000000000001"></path><path d="M327.65,111.91l.37.21-.31.16a7.78,7.78,0,0,0-3.85,4.7l-1,4.6-.55-4a8.35,8.35,0,0,0-4.66-5.48h0l.65-.34a7.74,7.74,0,0,0,3.88-4.82l.64-3.52,1,3.73A8.38,8.38,0,0,0,327.65,111.91Z" style="fill:#fff;opacity:0.6000000000000001"></path><path d="M143.17,184.45l.73.34-.56.35a14.6,14.6,0,0,0-6.53,9.38l-1.26,8.8-1.62-7.45a15.73,15.73,0,0,0-9.57-9.6h0l1.18-.74a14.57,14.57,0,0,0,6.58-9.63l.68-6.7,2.47,6.86A15.77,15.77,0,0,0,143.17,184.45Z" style="fill:#FF725E"></path><path d="M124.05,160.77l.37.17-.28.18a7.41,7.41,0,0,0-3.32,4.76l-.64,4.47-.82-3.79a8,8,0,0,0-4.86-4.87h0l.6-.37a7.4,7.4,0,0,0,3.34-4.89l.35-3.41,1.25,3.49A8,8,0,0,0,124.05,160.77Z" style="fill:#FF725E"></path><path d="M143.17,184.45l.73.34-.56.35a14.6,14.6,0,0,0-6.53,9.38l-1.26,8.8-1.62-7.45a15.73,15.73,0,0,0-9.57-9.6h0l1.18-.74a14.57,14.57,0,0,0,6.58-9.63l.68-6.7,2.47,6.86A15.77,15.77,0,0,0,143.17,184.45Z" style="fill:#fff;opacity:0.6000000000000001"></path><path d="M124.05,160.77l.37.17-.28.18a7.41,7.41,0,0,0-3.32,4.76l-.64,4.47-.82-3.79a8,8,0,0,0-4.86-4.87h0l.6-.37a7.4,7.4,0,0,0,3.34-4.89l.35-3.41,1.25,3.49A8,8,0,0,0,124.05,160.77Z" style="fill:#fff;opacity:0.6000000000000001"></path><path d="M159,125.4l.33.15-.25.17a6.81,6.81,0,0,0-3.05,4.36l-.58,4.1-.75-3.47a7.34,7.34,0,0,0-4.46-4.47h0l.55-.34a6.78,6.78,0,0,0,3.06-4.48l.32-3.12,1.15,3.19A7.29,7.29,0,0,0,159,125.4Z" style="fill:#FF725E"></path><path d="M159,125.4l.33.15-.25.17a6.81,6.81,0,0,0-3.05,4.36l-.58,4.1-.75-3.47a7.34,7.34,0,0,0-4.46-4.47h0l.55-.34a6.78,6.78,0,0,0,3.06-4.48l.32-3.12,1.15,3.19A7.29,7.29,0,0,0,159,125.4Z" style="fill:#fff;opacity:0.6000000000000001"></path><path d="M325.34,228.21l.34.16-.26.17a6.83,6.83,0,0,0-3,4.36l-.58,4.1-.76-3.47a7.3,7.3,0,0,0-4.45-4.47h0l.55-.34a6.78,6.78,0,0,0,3.06-4.48l.32-3.12,1.15,3.19A7.29,7.29,0,0,0,325.34,228.21Z" style="fill:#FF725E"></path><path d="M325.34,228.21l.34.16-.26.17a6.83,6.83,0,0,0-3,4.36l-.58,4.1-.76-3.47a7.3,7.3,0,0,0-4.45-4.47h0l.55-.34a6.78,6.78,0,0,0,3.06-4.48l.32-3.12,1.15,3.19A7.29,7.29,0,0,0,325.34,228.21Z" style="fill:#fff;opacity:0.6000000000000001"></path></g></svg>